<svg width="237" height="56" viewBox="0 0 237 56" fill="none" xmlns="http://www.w3.org/2000/svg">
<path d="M56.2651 15.7922C56.316 15.323 56.3491 14.5918 55.9599 13.8364C55.549 13.0391 54.4704 12.6461 54.4704 12.6461C54.4704 12.6461 54.0277 12.463 53.5177 12.4541C52.9847 12.4452 52.4556 12.6092 52.4556 12.6092L47.5547 15.4832L47.5853 11.2066C47.5853 11.2066 47.453 10.0684 46.7737 9.52287C45.8719 8.80056 45.0693 8.929 45.0693 8.929C45.0693 8.929 44.2324 8.99131 43.5035 9.49362C43.038 9.81536 42.5419 11.0374 42.5419 11.0374L42.1502 18.6535L32.4781 24.2184L32.4654 14.3616L38.6662 10.1587C38.6662 10.1587 39.4828 9.40842 39.7143 8.60218C39.9064 7.932 39.4879 6.98079 39.4879 6.98079C39.4879 6.98079 39.0262 6.19108 38.2528 5.87825C37.3765 5.52345 36.3551 5.90877 36.3551 5.90877L32.6333 8.09859L32.5773 2.31501C32.5773 2.31501 32.2784 1.21501 31.5992 0.716511C31.2189 0.438014 30.602 0.0425229 29.7523 0.00182928C28.8568 -0.0414077 27.9766 0.696165 27.9766 0.696165C27.9766 0.696165 27.5963 0.987378 27.3343 1.42484C27.0596 1.88137 26.9375 2.42183 26.9375 2.42183L26.9731 8.10114L23.2856 5.9342C23.2856 5.9342 22.2337 5.47894 21.4222 5.79431C20.3449 6.2127 20.0549 6.97316 20.0549 6.97316C20.0549 6.97316 19.6898 7.72853 19.761 8.61108C19.8068 9.17443 20.6171 10.2159 20.6171 10.2159L27.0163 14.3667L26.9998 22.8615L17.8366 17.9083L17.0975 10.455C17.0975 10.455 16.8279 9.37917 16.2275 8.79166C15.7302 8.30333 14.6935 8.21686 14.6935 8.21686C14.6935 8.21686 13.779 8.24611 13.1354 8.77639C12.4053 9.3779 12.2577 10.4588 12.2577 10.4588L12.4091 14.7736L7.29706 12.0662C7.29706 12.0662 6.18663 11.8043 5.426 12.1629C4.99989 12.3638 4.35755 12.7173 3.91745 13.4447C3.45191 14.2115 3.68086 15.337 3.68086 15.337C3.68086 15.337 3.75591 15.81 4.01539 16.2488C4.28632 16.7078 4.70225 17.0728 4.70225 17.0728L9.71252 19.7497L6.04926 21.9573C6.04926 21.9573 5.14744 22.6644 5.03805 23.5291C4.89304 24.6749 5.42218 25.2929 5.42218 25.2929C5.42218 25.2929 5.91189 25.9745 6.72213 26.3332C7.23982 26.5621 8.54104 26.3459 8.54104 26.3459L15.2417 22.7013L23.5121 27.2068L14.6872 32.0328L8.02716 28.6018C8.02716 28.6018 6.97779 28.2432 6.15865 28.4276C5.47815 28.5802 4.84217 29.403 4.84217 29.403C4.84217 29.403 4.37027 30.1863 4.46439 31.0155C4.57251 31.9552 5.39929 32.6661 5.39929 32.6661L9.10452 34.8839L4.05355 37.7019C4.05355 37.7019 3.23059 38.4904 3.11738 39.3259C3.05506 39.7926 3.00291 40.5238 3.37305 41.2893C3.76354 42.0956 4.83326 42.5165 4.83326 42.5165C4.83326 42.5165 5.27082 42.7111 5.78088 42.7314C6.31383 42.7543 6.84678 42.603 6.84678 42.603L11.8176 39.8524L11.6802 44.1265C11.6802 44.1265 11.7833 45.2671 12.4498 45.8292C13.3325 46.5744 14.139 46.4651 14.139 46.4651C14.139 46.4651 14.9772 46.4244 15.7187 45.9399C16.1919 45.6296 16.7185 44.4202 16.7185 44.4202L17.2998 36.8156L26.9871 31.5585L26.9985 40.6408L20.7977 44.8437C20.7977 44.8437 19.9811 45.594 19.7496 46.4002C19.5575 47.0704 19.976 48.0216 19.976 48.0216C19.976 48.0216 20.4377 48.8113 21.2111 49.1241C22.0875 49.4789 23.1088 49.0936 23.1088 49.0936L26.8306 46.9038L26.8866 52.6874C26.8866 52.6874 27.1855 53.7874 27.8647 54.2859C28.245 54.5644 28.8619 54.9599 29.7116 55.0006C30.6071 55.0438 31.4873 54.3062 31.4873 54.3062C31.4873 54.3062 31.8676 54.015 32.1296 53.5776C32.4044 53.121 32.5265 52.5806 32.5265 52.5806L32.4909 46.9013L36.1783 49.0682C36.1783 49.0682 37.2302 49.5234 38.0417 49.2081C39.1191 48.7897 39.4091 48.0292 39.4091 48.0292C39.4091 48.0292 39.7741 47.2738 39.7029 46.3913C39.6571 45.828 38.8469 44.7865 38.8469 44.7865L32.4476 40.6357L32.4654 31.6488L41.448 36.8258L41.9835 44.2969C41.9835 44.2969 42.2239 45.3791 42.8078 45.9831C43.2924 46.4841 44.3252 46.5999 44.3252 46.5999C44.3252 46.5999 45.241 46.5961 45.8986 46.0836C46.6453 45.5024 46.8221 44.4266 46.8221 44.4266L46.7877 40.1092L51.8234 42.9552C51.8234 42.9552 52.9262 43.2477 53.697 42.9095C54.1295 42.72 54.7795 42.3843 55.2412 41.6696C55.7271 40.9167 55.5287 39.7849 55.5287 39.7849C55.5287 39.7849 55.4663 39.3106 55.2196 38.8643C54.9614 38.3975 54.5543 38.0211 54.5543 38.0211L49.6191 35.2082L53.3422 33.101C53.3422 33.101 54.2631 32.4194 54.3966 31.5572C54.5734 30.4152 54.0608 29.7845 54.0608 29.7845C54.0608 29.7845 53.5889 29.0902 52.7901 28.7099C52.2788 28.467 50.9725 28.6476 50.9725 28.6476L44.1751 32.1078L37.0012 27.9418L44.8849 23.3714L51.6276 26.6358C51.6276 26.6358 52.6858 26.9677 53.4999 26.763C54.1766 26.5939 54.7909 25.7558 54.7909 25.7558C54.7909 25.7558 55.2437 24.961 55.128 24.1344C54.997 23.1985 54.1524 22.508 54.1524 22.508L50.3937 20.383L55.3735 17.4403C55.3735 17.4403 56.1774 16.6315 56.269 15.7935L56.2651 15.7922Z" fill="#1F4088"/>
<path opacity="0.5" d="M44.2555 11.4966C47.7839 14.5422 43.8332 24.9013 35.4293 34.6322C27.0254 44.3631 17.3522 49.7829 13.8237 46.736L44.2555 11.4966Z" fill="#229FDB"/>
<path d="M16.9233 30.8071C18.353 28.7597 19.6988 27.2604 21.1145 25.8984L20.0396 25.3135C19.0437 26.4058 17.9574 27.6839 16.8992 29.0942C16.211 30.011 15.3512 31.0665 14.6859 32.0305L16.9233 30.8071Z" fill="#3395D2"/>
<path d="M39.7513 8.42798C39.7513 8.42798 39.6559 9.19353 38.6676 10.1587L32.4667 14.3616L32.4718 17.9999C33.9422 16.8465 34.5032 16.732 34.4752 17.682C34.4446 18.6942 32.3357 21.9853 29.0642 26.3154C27.5341 28.3399 23.0059 33.2358 20.7202 35.3926C19.6937 36.3616 13.1087 42.2495 11.8189 39.846L8.52583 41.6683C8.47623 41.7942 7.30602 45.4655 10.7569 47.3082C13.9978 49.039 18.4548 48.2225 24.2727 44.1049C28.0594 41.4254 32.945 37.145 37.8522 29.5861C41.8119 23.4872 44.2566 17.9986 44.2261 13.7779C44.1892 8.79677 41.4506 8.20417 39.7538 8.42544L39.7513 8.42798Z" fill="#3395D2"/>
<path d="M27.01 18.2363L24.0273 21.254L25.2878 21.9344L27.0062 20.547L27.01 18.2363Z" fill="#3395D2"/>
<path d="M17.9019 40.9624C17.9019 40.9624 36.8287 26.9955 40.539 16.3809C40.7476 22.0449 26.7853 36.6094 17.9019 40.9624Z" fill="#7CC8F1"/>
<path d="M22.0459 26.3891C19.909 28.7531 18.0812 31.4135 16.7355 34.3142C14.6876 38.7281 13.216 44.9772 15.2193 47.5116C16.9593 49.7129 19.4588 50.9579 23.6308 49.0961C20.8719 51.4398 16.7011 52.3007 14.6876 51.1295C10.2523 48.5493 10.5665 41.068 17.0662 30.8374C18.2071 29.0418 19.5974 27.4001 20.9775 25.8066L22.0459 26.3891Z" fill="#3395D2"/>
<path d="M24.1777 21.3357C25.1088 20.4646 26.0539 19.6481 27.004 18.9004V20.7888C26.4787 21.1741 25.9572 21.5849 25.4395 22.0173" fill="#7CC8F1"/>
<path d="M37.5677 10.904C38.6807 10.4704 39.552 10.4272 39.9221 11.0986C40.5505 12.5178 40.2719 14.5919 38.4581 18.0572C37.036 20.7748 33.5076 24.1816 31.9304 25.9124C30.7551 27.2018 27.7316 29.7325 24.857 32.0291L28.6042 27.9305C29.8749 26.5724 35.4702 20.4658 36.1711 16.5999C36.5056 14.7585 35.17 14.3299 32.4468 16.7029L32.4709 14.3579L37.5677 10.904Z" fill="#7CC8F1"/>
<path d="M39.7631 8.10633L41.6672 7.54297C42.9049 7.17673 44.1946 6.99615 45.4844 7.04702C47.2321 7.11569 48.4379 7.34332 49.5916 8.45858C50.7452 9.57384 50.7669 12.6691 48.5473 18.5646C45.7782 25.92 40.9498 30.8884 40.8277 31.0448C37.4621 35.2795 32.7775 39.2967 29.0239 41.6163C19.764 47.3388 15.0921 49.0314 11.523 47.6631C9.75746 46.9866 7.97544 44.255 8.7666 41.5362L10.6059 40.5188C10.6059 40.5188 11.6171 45.7251 21.5397 41.0822C30.7818 36.7572 35.9434 32.0901 40.4716 27.1649C43.5205 23.8141 49.1591 12.9807 46.6737 10.0266C45.1639 8.23095 43.1402 7.81511 39.7402 8.48783" fill="#7CC8F1"/>
<path d="M27.004 15.6082C24.3469 17.6492 21.6389 20.1798 19.0861 23.0093C19.8327 22.1141 20.8503 20.9594 21.906 19.7844C23.5786 17.9226 25.3009 16.2364 27.0155 14.7612" fill="#7CC8F1"/>
<path d="M10.7725 40.4261C9.87704 43.1615 10.3299 44.7968 11.4034 46.2758C12.5571 47.7675 14.0033 47.901 16.6922 47.2486C21.7826 45.8167 27.8448 40.4604 33.4707 34.3335L32.4162 35.8735C29.8685 39.5944 26.845 42.9707 23.3802 45.8574C18.0125 50.3299 13.132 52.4473 10.0106 50.9734C9.93682 50.939 9.86432 50.9022 9.79181 50.864C7.86606 49.7856 7.23644 47.4903 7.86224 43.9143C7.99326 43.2174 8.17388 42.4888 8.40537 41.7359L10.7725 40.4261Z" fill="#C6E7FB"/>
<path d="M34.7605 24.5543C34.3344 26.0104 33.575 27.5999 32.462 29.3447C31.9354 30.2501 31.6569 30.8974 32.1606 31.0068C33.0052 30.9635 34.2326 29.4541 35.2629 28.115C39.7504 22.2843 41.2055 20.2484 41.839 16.3647C42.4419 12.3932 41.8491 9.96561 38.8638 9.9618C38.8638 9.9618 40.0315 8.88215 39.7021 7.65625C39.7021 7.65625 41.1165 7.68296 41.4281 7.7122C41.5197 7.72111 41.61 7.73128 41.7003 7.744C45.2771 8.23741 46.9586 11.8986 44.9247 18.084C43.3984 22.2843 40.6586 26.8802 36.9381 31.0576C33.9553 34.3182 30.7589 38.0112 27.8206 38.675C24.6547 39.3897 23.8127 39.1964 23.1131 37.8433C21.1555 34.0575 31.7612 26.0383 32.3997 22.1241L32.4684 21.4132C33.2316 21.3115 33.8994 20.8804 34.4005 21.2263C35.179 21.749 35.2235 22.9825 34.7617 24.5568" fill="#C6E7FB"/>
<path d="M18.7617 24.6152C18.4921 24.9548 18.2173 25.3045 17.9413 25.6567C16.3984 27.6266 15.0361 29.6701 13.8799 31.6145L14.6876 32.0304C15.8464 29.8062 17.285 27.1548 18.9182 24.7017L18.7604 24.6165L18.7617 24.6152Z" fill="#C6E7FB"/>
<path d="M39.7007 7.64949C40.923 7.60244 42.4634 7.71562 43.5636 8.38834C45.6789 9.68036 46.8987 13.2436 45.0709 18.2362C43.4135 22.7659 42.4519 23.7006 40.7348 26.1626C42.8933 22.0156 44.0533 20.7071 44.6575 15.1587C45.1803 10.3518 43.7341 8.17724 39.7452 7.87712L39.7007 7.64949Z" fill="#3395D2"/>
<path d="M49.8152 3.05352C49.8152 3.05352 49.6511 5.30947 47.9658 5.96438C49.4641 6.20727 49.9437 8.60438 49.9437 8.60438C49.9437 8.60438 50.2311 6.25433 51.6646 5.89826C50.2044 5.35525 49.8152 3.05225 49.8152 3.05225V3.05352Z" fill="#7CC8F1"/>
<path d="M55.4971 1.54932C55.4971 1.54932 55.4017 2.7714 54.4261 3.1262C55.2936 3.25845 55.5721 4.55683 55.5721 4.55683C55.5721 4.55683 55.7388 3.28388 56.5681 3.09059C55.7222 2.79683 55.4971 1.54932 55.4971 1.54932Z" fill="#7CC8F1"/>
<path d="M52.9404 8.60449C52.9404 8.60449 52.859 9.73247 52.0157 10.0606C52.7649 10.1826 53.0053 11.3806 53.0053 11.3806C53.0053 11.3806 53.149 10.2055 53.8652 10.0275C53.135 9.75663 52.9404 8.60449 52.9404 8.60449Z" fill="#7CC8F1"/>
<path d="M0.695764 39.8369C0.695764 39.8369 0.63471 40.6851 0 40.9318C0.56348 41.0234 0.744099 41.925 0.744099 41.925C0.744099 41.925 0.852216 41.0412 1.39026 40.9077C0.840768 40.7029 0.694492 39.8382 0.694492 39.8382L0.695764 39.8369Z" fill="#7CC8F1"/>
<path d="M2.61772 45.8865C2.61772 45.8865 2.45363 48.1425 0.76828 48.7974C2.26665 49.0403 2.74618 51.4374 2.74618 51.4374C2.74618 51.4374 3.03365 49.0873 4.46715 48.7313C3.00694 48.1883 2.61772 45.8853 2.61772 45.8853V45.8865Z" fill="#7CC8F1"/>
<path d="M6.45521 41.7202C6.45521 41.7202 6.35091 43.0262 5.28119 43.4065C6.23262 43.5476 6.53662 44.935 6.53662 44.935C6.53662 44.935 6.71978 43.5743 7.62923 43.3683C6.70197 43.0542 6.45521 41.7202 6.45521 41.7202Z" fill="#7CC8F1"/>
<path d="M11.8176 39.8475C11.8176 39.8475 13.363 43.1425 21.529 36.4395C18.5704 39.4355 12.8339 44.0848 11.001 40.299L11.8176 39.8475Z" fill="#C6E7FB"/>
<path d="M62.1543 31.0538V10.1182H70.0112C71.6113 10.1182 72.8948 10.3305 73.8615 10.754C74.8281 11.1775 75.585 11.8298 76.1332 12.7111C76.6801 13.5924 76.9549 14.5131 76.9549 15.4745C76.9549 16.3697 76.7119 17.2116 76.226 18.0026C75.7402 18.7935 75.0075 19.4306 74.0268 19.9164C75.2937 20.2878 76.2667 20.9211 76.9485 21.8163C77.629 22.7116 77.9699 23.7683 77.9699 24.9866C77.9699 25.9671 77.7626 26.8789 77.3479 27.722C76.9332 28.5651 76.4219 29.2149 75.8127 29.6715C75.2034 30.128 74.4389 30.4739 73.5193 30.7066C72.5997 30.9406 71.474 31.0563 70.141 31.0563H62.1556L62.1543 31.0538ZM64.9259 18.9144H69.4541C70.6828 18.9144 71.563 18.833 72.0972 18.6715C72.8019 18.4616 73.3323 18.1145 73.6897 17.6287C74.0472 17.1429 74.2252 16.5338 74.2252 15.8C74.2252 15.1057 74.0586 14.4927 73.7254 13.965C73.3921 13.436 72.9164 13.0748 72.2969 12.879C71.6775 12.6844 70.6167 12.5865 69.1119 12.5865H64.9259V18.9131V18.9144ZM64.9259 28.5829H70.1397C71.0352 28.5829 71.6635 28.5498 72.0247 28.4824C72.662 28.368 73.1962 28.1772 73.6249 27.9115C74.0535 27.6444 74.4059 27.2565 74.6819 26.7479C74.9579 26.2392 75.0965 25.6504 75.0965 24.9841C75.0965 24.2033 74.8968 23.5254 74.4962 22.9494C74.0968 22.3733 73.5409 21.9689 72.8324 21.7349C72.1227 21.5022 71.1013 21.3852 69.7683 21.3852H64.9259V28.5829Z" fill="#68C8F0"/>
<path d="M81.4246 31.054V15.888H83.7383V18.1872C84.3285 17.1113 84.8741 16.4017 85.374 16.0597C85.8739 15.7163 86.4234 15.5459 87.0237 15.5459C87.8899 15.5459 88.7714 15.8219 89.6669 16.3738L88.7816 18.7582C88.1532 18.3868 87.5249 18.2012 86.8965 18.2012C86.3343 18.2012 85.8294 18.3703 85.3829 18.7086C84.9352 19.0468 84.6159 19.5161 84.4264 20.115C84.1402 21.0294 83.9977 22.0289 83.9977 23.1136V31.054H81.4271H81.4246Z" fill="#68C8F0"/>
<path d="M101.58 26.1706L104.237 26.4987C103.817 28.0501 103.042 29.2544 101.908 30.1115C100.775 30.9686 99.3275 31.3971 97.5658 31.3971C95.3462 31.3971 93.5871 30.7143 92.2871 29.3472C90.9872 27.9814 90.3372 26.065 90.3372 23.5992C90.3372 21.1335 90.9948 19.067 92.3088 17.658C93.6227 16.2489 95.3271 15.5444 97.4233 15.5444C99.5195 15.5444 101.108 16.235 102.394 17.6147C103.68 18.9958 104.322 20.9376 104.322 23.4415C104.322 23.5941 104.317 23.823 104.308 24.127H92.9944C93.0898 25.7929 93.5604 27.0684 94.4088 27.9547C95.2559 28.8398 96.3129 29.2824 97.5798 29.2824C98.5223 29.2824 99.3275 29.0344 99.994 28.5397C100.66 28.045 101.188 27.254 101.58 26.1693V26.1706ZM93.1381 22.0147H101.609C101.495 20.7392 101.172 19.7817 100.638 19.1445C99.8184 18.1539 98.7564 17.6592 97.4526 17.6592C96.2722 17.6592 95.2788 18.0547 94.4736 18.8444C93.6685 19.6354 93.2233 20.6922 93.1381 22.0147Z" fill="#68C8F0"/>
<path d="M117.365 29.1832C116.412 29.9919 115.497 30.5642 114.615 30.8974C113.734 31.2306 112.789 31.3971 111.78 31.3971C110.114 31.3971 108.833 30.9902 107.937 30.1763C107.042 29.3625 106.594 28.3222 106.594 27.0556C106.594 26.313 106.763 25.6352 107.102 25.021C107.44 24.4067 107.883 23.9146 108.431 23.5433C108.978 23.1719 109.595 22.8909 110.28 22.7002C110.785 22.5666 111.547 22.4382 112.566 22.3148C114.642 22.0669 116.171 21.7718 117.151 21.4298C117.16 21.0775 117.165 20.8537 117.165 20.7583C117.165 19.7117 116.923 18.9729 116.437 18.5443C115.779 17.9632 114.803 17.6732 113.509 17.6732C112.299 17.6732 111.406 17.8856 110.83 18.3091C110.254 18.7325 109.828 19.4828 109.551 20.5587L107.037 20.2153C107.266 19.1395 107.641 18.2709 108.165 17.6084C108.689 16.9471 109.446 16.4372 110.437 16.0798C111.428 15.7225 112.575 15.5444 113.88 15.5444C115.185 15.5444 116.228 15.697 117.037 16.001C117.846 16.3062 118.441 16.6889 118.823 17.1506C119.203 17.6122 119.47 18.1959 119.623 18.9004C119.708 19.3378 119.751 20.1288 119.751 21.2708V24.698C119.751 27.0874 119.806 28.5995 119.915 29.2328C120.025 29.8661 120.241 30.4726 120.565 31.0538H117.88C117.613 30.521 117.443 29.8966 117.366 29.1832H117.365ZM117.151 23.4415C116.218 23.823 114.819 24.1461 112.951 24.4131C111.894 24.5657 111.147 24.7374 110.709 24.9269C110.271 25.1176 109.933 25.3961 109.695 25.7624C109.457 26.1286 109.338 26.5355 109.338 26.9832C109.338 27.6686 109.597 28.2396 110.116 28.6974C110.635 29.1539 111.395 29.3828 112.394 29.3828C113.394 29.3828 114.265 29.1666 115.037 28.733C115.808 28.2993 116.376 27.7067 116.737 26.9552C117.013 26.374 117.151 25.5182 117.151 24.3851V23.4428V23.4415Z" fill="#68C8F0"/>
<path d="M129.35 28.7545L129.721 31.0257C128.997 31.1783 128.35 31.2546 127.779 31.2546C126.845 31.2546 126.121 31.1071 125.608 30.812C125.094 30.517 124.731 30.1291 124.521 29.6485C124.311 29.1678 124.207 28.1555 124.207 26.6142V17.888H122.322V15.8889H124.207V12.1324L126.764 10.5898V15.8889H129.35V17.888H126.764V26.7567C126.764 27.4904 126.808 27.9609 126.9 28.1708C126.99 28.3806 127.138 28.5472 127.342 28.6705C127.547 28.7939 127.84 28.8562 128.221 28.8562C128.508 28.8562 128.883 28.8231 129.35 28.7557V28.7545Z" fill="#68C8F0"/>
<path d="M131.864 31.0538V10.1182H134.435V17.63C135.634 16.24 137.149 15.5444 138.977 15.5444C140.1 15.5444 141.077 15.7657 141.905 16.2082C142.733 16.6508 143.326 17.2624 143.683 18.0433C144.041 18.8241 144.219 19.9571 144.219 21.4424V31.0538H141.648V21.4424C141.648 20.1568 141.37 19.2221 140.813 18.6359C140.255 18.0509 139.467 17.7571 138.448 17.7571C137.686 17.7571 136.97 17.9542 136.298 18.3497C135.627 18.7452 135.148 19.2806 134.862 19.9559C134.576 20.6324 134.434 21.5645 134.434 22.7548V31.0525H131.863L131.864 31.0538Z" fill="#68C8F0"/>
<path d="M158.52 26.1706L161.177 26.4987C160.757 28.0501 159.981 29.2544 158.848 30.1115C157.714 30.9686 156.267 31.3971 154.505 31.3971C152.286 31.3971 150.527 30.7143 149.227 29.3472C147.927 27.9814 147.277 26.065 147.277 23.5992C147.277 21.1335 147.934 19.067 149.248 17.658C150.562 16.2489 152.267 15.5444 154.363 15.5444C156.459 15.5444 158.048 16.235 159.334 17.6147C160.62 18.9958 161.262 20.9376 161.262 23.4415C161.262 23.5941 161.257 23.823 161.248 24.127H149.934C150.029 25.7929 150.5 27.0684 151.348 27.9547C152.195 28.8398 153.252 29.2824 154.519 29.2824C155.462 29.2824 156.267 29.0344 156.933 28.5397C157.6 28.045 158.128 27.254 158.52 26.1693V26.1706ZM150.078 22.0147H158.549C158.434 20.7392 158.111 19.7817 157.577 19.1445C156.758 18.1539 155.696 17.6592 154.392 17.6592C153.212 17.6592 152.218 18.0547 151.413 18.8444C150.608 19.6354 150.163 20.6922 150.078 22.0147Z" fill="#68C8F0"/>
<path d="M163.405 24.7704V22.1851H171.304V24.7704H163.405Z" fill="#68C8F0"/>
<path d="M174.532 31.0538V10.1182H189.674V12.589H177.303V19.0008H188.888V21.4577H177.303V28.5842H190.158V31.055H174.531L174.532 31.0538Z" fill="#68C8F0"/>
<path d="M203.56 29.1832C202.607 29.9919 201.691 30.5642 200.81 30.8974C199.928 31.2306 198.983 31.3971 197.975 31.3971C196.308 31.3971 195.027 30.9902 194.132 30.1763C193.237 29.3625 192.789 28.3222 192.789 27.0556C192.789 26.313 192.958 25.6352 193.296 25.021C193.635 24.4067 194.077 23.9146 194.626 23.5433C195.172 23.1719 195.789 22.8909 196.475 22.7002C196.98 22.5666 197.742 22.4382 198.761 22.3148C200.837 22.0669 202.365 21.7718 203.346 21.4298C203.355 21.0775 203.36 20.8537 203.36 20.7583C203.36 19.7117 203.117 18.9729 202.631 18.5443C201.974 17.9632 200.998 17.6732 199.703 17.6732C198.494 17.6732 197.601 17.8856 197.024 18.3091C196.448 18.7325 196.022 19.4828 195.746 20.5587L193.231 20.2153C193.46 19.1395 193.836 18.2709 194.36 17.6084C194.884 16.9471 195.641 16.4372 196.631 16.0798C197.622 15.7225 198.77 15.5444 200.075 15.5444C201.38 15.5444 202.423 15.697 203.232 16.001C204.041 16.3062 204.636 16.6889 205.017 17.1506C205.398 17.6122 205.665 18.1959 205.818 18.9004C205.903 19.3378 205.946 20.1288 205.946 21.2708V24.698C205.946 27.0874 206.001 28.5995 206.11 29.2328C206.22 29.8661 206.436 30.4726 206.76 31.0538H204.075C203.808 30.521 203.637 29.8966 203.561 29.1832H203.56ZM203.346 23.4415C202.413 23.823 201.013 24.1461 199.146 24.4131C198.089 24.5657 197.341 24.7374 196.904 24.9269C196.466 25.1176 196.128 25.3961 195.89 25.7624C195.652 26.1286 195.532 26.5355 195.532 26.9832C195.532 27.6686 195.792 28.2396 196.311 28.6974C196.83 29.1539 197.589 29.3828 198.589 29.3828C199.589 29.3828 200.46 29.1666 201.232 28.733C202.003 28.2993 202.57 27.7067 202.931 26.9552C203.207 26.374 203.346 25.5182 203.346 24.3851V23.4428V23.4415Z" fill="#68C8F0"/>
<path d="M208.902 26.5268L211.445 26.1275C211.587 27.1461 211.985 27.9269 212.638 28.4699C213.29 29.013 214.202 29.2838 215.374 29.2838C216.545 29.2838 217.431 29.0435 218.002 28.5628C218.573 28.0821 218.859 27.5175 218.859 26.8702C218.859 26.289 218.607 25.8325 218.102 25.4993C217.75 25.2704 216.873 24.9805 215.474 24.6282C213.589 24.1526 212.282 23.7406 211.553 23.3934C210.824 23.0462 210.272 22.5656 209.895 21.9513C209.519 21.3371 209.331 20.6593 209.331 19.9166C209.331 19.2414 209.486 18.6145 209.795 18.0384C210.104 17.4623 210.526 16.9842 211.059 16.6027C211.459 16.3076 212.004 16.0571 212.695 15.8524C213.386 15.6476 214.126 15.5459 214.916 15.5459C216.106 15.5459 217.152 15.7176 218.051 16.0597C218.952 16.403 219.616 16.8672 220.044 17.4521C220.473 18.0371 220.768 18.8205 220.93 19.8009L218.415 20.1443C218.301 19.3635 217.97 18.7543 217.422 18.3156C216.873 17.8782 216.1 17.6582 215.1 17.6582C213.92 17.6582 213.077 17.854 212.572 18.2431C212.067 18.6335 211.815 19.0901 211.815 19.614C211.815 19.9472 211.919 20.2473 212.129 20.5143C212.339 20.7903 212.667 21.0192 213.115 21.1998C213.372 21.2951 214.129 21.5139 215.387 21.8572C217.205 22.343 218.475 22.741 219.194 23.0501C219.912 23.3591 220.477 23.8092 220.887 24.3993C221.296 24.9894 221.501 25.7231 221.501 26.598C221.501 27.473 221.25 28.2614 220.75 29.0193C220.251 29.776 219.529 30.3622 218.587 30.7755C217.644 31.1888 216.577 31.3973 215.387 31.3973C213.415 31.3973 211.913 30.9879 210.88 30.1689C209.847 29.3499 209.187 28.1368 208.902 26.5268Z" fill="#68C8F0"/>
<path d="M224.444 36.8958L224.158 34.4821C224.72 34.6347 225.21 34.711 225.63 34.711C226.201 34.711 226.659 34.6157 227.001 34.4249C227.343 34.2342 227.624 33.9684 227.844 33.625C228.006 33.3682 228.268 32.7298 228.63 31.7112C228.677 31.5687 228.754 31.3589 228.859 31.083L223.102 15.8877H225.874L229.031 24.6712C229.44 25.7852 229.807 26.9564 230.131 28.1848C230.426 27.0047 230.779 25.8526 231.188 24.7284L234.43 15.8877H237.001L231.23 31.3119C230.611 32.9778 230.13 34.1248 229.788 34.7543C229.331 35.6012 228.807 36.2231 228.217 36.6173C227.627 37.0128 226.922 37.2099 226.103 37.2099C225.608 37.2099 225.055 37.1043 224.445 36.8958H224.444Z" fill="#68C8F0"/>
<path d="M61.6366 47.5842L64.7834 39.3921H65.9511L69.3053 47.5842H68.0702L67.115 45.1032H63.6883L62.7877 47.5842H61.6366ZM64.0012 44.2194H66.7792L65.9244 41.9507C65.6636 41.2615 65.4703 40.6956 65.3431 40.2517C65.2388 40.7769 65.0913 41.2983 64.9017 41.8159L64.0012 44.2194Z" fill="#68C8F0"/>
<path d="M75.1639 47.5842V39.3921H76.2489V47.5842H75.1639Z" fill="#68C8F0"/>
<path d="M82.9853 47.5842V39.3921H86.618C87.3481 39.3921 87.9039 39.4658 88.2843 39.6134C88.6646 39.7609 88.9686 40.0203 89.195 40.3929C89.4214 40.7655 89.5359 41.1775 89.5359 41.6277C89.5359 42.2089 89.3476 42.6985 88.9711 43.0978C88.5946 43.4971 88.0133 43.7501 87.2273 43.8582C87.5147 43.9956 87.7322 44.1316 87.881 44.2664C88.1978 44.5576 88.4979 44.9201 88.7816 45.3563L90.2075 47.5855H88.8439L87.7589 45.8815C87.4422 45.3893 87.1815 45.0129 86.9767 44.7522C86.7719 44.4915 86.5887 44.3084 86.4259 44.2041C86.2644 44.0998 86.099 44.0274 85.9311 43.9867C85.8077 43.96 85.6068 43.9472 85.3269 43.9472H84.069V47.5855H82.984L82.9853 47.5842ZM84.0702 43.0075H86.4018C86.8978 43.0075 87.2845 42.9566 87.5643 42.8536C87.8442 42.7506 88.0566 42.5878 88.2016 42.3615C88.3466 42.1351 88.4191 41.8909 88.4191 41.6264C88.4191 41.2386 88.2779 40.9206 87.9968 40.6714C87.7157 40.4221 87.2705 40.2975 86.6638 40.2975H84.0702V43.0075Z" fill="#68C8F0"/>
<path d="M101.89 44.7125L102.975 44.9859C102.748 45.8761 102.339 46.5552 101.748 47.0232C101.157 47.4911 100.435 47.7239 99.5818 47.7239C98.7283 47.7239 97.9804 47.5446 97.4271 47.1847C96.8738 46.8248 96.4528 46.3047 96.1641 45.623C95.8753 44.9414 95.7303 44.2089 95.7303 43.4269C95.7303 42.5736 95.8931 41.8296 96.22 41.1938C96.5456 40.5592 97.0099 40.076 97.6115 39.7466C98.2132 39.4173 98.8759 39.252 99.5984 39.252C100.419 39.252 101.108 39.4605 101.667 39.8776C102.225 40.2947 102.615 40.8822 102.834 41.6376L101.767 41.8894C101.578 41.293 101.302 40.8594 100.94 40.5872C100.579 40.3151 100.124 40.179 99.5767 40.179C98.9471 40.179 98.4205 40.3303 97.9982 40.6317C97.5747 40.9331 97.2783 41.3388 97.1066 41.8474C96.9349 42.3561 96.8496 42.88 96.8496 43.4205C96.8496 44.1174 96.9514 44.7252 97.1536 45.2454C97.3572 45.7655 97.6726 46.1533 98.1013 46.4102C98.5299 46.6671 98.9942 46.7955 99.4928 46.7955C100.101 46.7955 100.615 46.62 101.036 46.2703C101.457 45.9206 101.742 45.4005 101.89 44.7113V44.7125Z" fill="#68C8F0"/>
<path d="M108.79 43.5949C108.79 42.2355 109.155 41.1711 109.885 40.4005C110.615 39.6311 111.557 39.2471 112.714 39.2471C113.47 39.2471 114.152 39.4276 114.759 39.7888C115.366 40.15 115.83 40.6535 116.148 41.3008C116.466 41.9468 116.626 42.6806 116.626 43.4996C116.626 44.3185 116.458 45.0739 116.122 45.7288C115.787 46.3837 115.312 46.8809 114.697 47.2179C114.082 47.5549 113.418 47.7241 112.707 47.7241C111.936 47.7241 111.247 47.5384 110.639 47.1658C110.031 46.7932 109.572 46.2845 109.259 45.6398C108.946 44.995 108.79 44.3134 108.79 43.5949ZM109.908 43.6115C109.908 44.5983 110.173 45.3765 110.704 45.945C111.234 46.5134 111.901 46.797 112.702 46.797C113.503 46.797 114.19 46.5096 114.717 45.9361C115.244 45.3626 115.508 44.5487 115.508 43.4945C115.508 42.8281 115.395 42.2457 115.17 41.7485C114.945 41.2512 114.614 40.8659 114.18 40.5912C113.746 40.3178 113.259 40.1805 112.719 40.1805C111.95 40.1805 111.29 40.4437 110.737 40.9715C110.184 41.4992 109.906 42.3792 109.906 43.6115H109.908Z" fill="#68C8F0"/>
<path d="M122.821 47.5842V39.3921H123.934L128.238 45.8242V39.3921H129.277V47.5842H128.164L123.86 41.147V47.5842H122.821Z" fill="#68C8F0"/>
<path d="M149.742 44.7125L150.827 44.9859C150.599 45.8761 150.191 46.5552 149.599 47.0232C149.008 47.4911 148.287 47.7239 147.433 47.7239C146.58 47.7239 145.832 47.5446 145.278 47.1847C144.725 46.8248 144.304 46.3047 144.015 45.623C143.727 44.9414 143.582 44.2089 143.582 43.4269C143.582 42.5736 143.744 41.8296 144.071 41.1938C144.397 40.5592 144.861 40.076 145.463 39.7466C146.064 39.4173 146.727 39.252 147.45 39.252C148.27 39.252 148.959 39.4605 149.518 39.8776C150.076 40.2947 150.467 40.8822 150.686 41.6376L149.618 41.8894C149.429 41.293 149.153 40.8594 148.792 40.5872C148.43 40.3151 147.975 40.179 147.428 40.179C146.798 40.179 146.272 40.3303 145.85 40.6317C145.426 40.9331 145.13 41.3388 144.958 41.8474C144.786 42.3561 144.701 42.88 144.701 43.4205C144.701 44.1174 144.803 44.7252 145.005 45.2454C145.208 45.7655 145.524 46.1533 145.953 46.4102C146.381 46.6671 146.845 46.7955 147.344 46.7955C147.952 46.7955 148.466 46.62 148.887 46.2703C149.308 45.9206 149.593 45.4005 149.742 44.7113V44.7125Z" fill="#68C8F0"/>
<path d="M156.926 47.5842V39.3921H158.011V46.6178H162.047V47.5842H156.927H156.926Z" fill="#68C8F0"/>
<path d="M168.167 47.5842V39.3921H174.092V40.3586H169.251V42.8676H173.784V43.829H169.251V46.6178H174.282V47.5842H168.166H168.167Z" fill="#68C8F0"/>
<path d="M179.689 47.5842L182.836 39.3921H184.003L187.358 47.5842H186.122L185.167 45.1032H181.741L180.84 47.5842H179.689ZM182.053 44.2194H184.831L183.977 41.9507C183.716 41.2615 183.523 40.6956 183.395 40.2517C183.291 40.7769 183.144 41.2983 182.954 41.8159L182.053 44.2194Z" fill="#68C8F0"/>
<path d="M193.02 47.5842V39.3921H194.133L198.438 45.8242V39.3921H199.477V47.5842H198.364L194.06 41.147V47.5842H193.02Z" fill="#68C8F0"/>
<path d="M206.292 47.5842V39.3921H207.377V47.5842H206.292Z" fill="#68C8F0"/>
<path d="M214.084 47.5842V39.3921H215.197L219.501 45.8242V39.3921H220.541V47.5842H219.428L215.123 41.147V47.5842H214.084Z" fill="#68C8F0"/>
<path d="M231.005 44.3719V43.4105L234.476 43.4054V46.446C233.943 46.8708 233.394 47.19 232.828 47.4049C232.262 47.6185 231.68 47.7266 231.084 47.7266C230.279 47.7266 229.547 47.5549 228.89 47.209C228.232 46.8644 227.735 46.3659 227.4 45.7148C227.066 45.0637 226.897 44.335 226.897 43.5301C226.897 42.7251 227.063 41.9888 227.396 41.297C227.73 40.6065 228.209 40.0927 228.836 39.757C229.463 39.4213 230.183 39.2534 231 39.2534C231.593 39.2534 232.128 39.3488 232.606 39.5408C233.085 39.7328 233.461 39.9999 233.733 40.3432C234.006 40.6866 234.212 41.133 234.354 41.6849L233.376 41.9532C233.253 41.5361 233.1 41.208 232.918 40.9702C232.736 40.7324 232.474 40.5404 232.136 40.3979C231.797 40.2555 231.421 40.183 231.006 40.183C230.51 40.183 230.082 40.258 229.72 40.4094C229.359 40.5607 229.068 40.7591 228.845 41.0045C228.624 41.25 228.451 41.5208 228.328 41.8146C228.119 42.3207 228.015 42.8713 228.015 43.4627C228.015 44.1926 228.141 44.8043 228.392 45.2952C228.644 45.7873 229.011 46.1523 229.491 46.3901C229.972 46.6279 230.482 46.7474 231.023 46.7474C231.492 46.7474 231.95 46.6571 232.398 46.4765C232.846 46.296 233.184 46.1027 233.415 45.8979V44.3719H231.006H231.005Z" fill="#68C8F0"/>
</svg>
