<?xml version="1.0" encoding="UTF-8"?><svg xmlns="http://www.w3.org/2000/svg" viewBox="0 0 1863.26 432.5"><defs><style>.cls-1{fill:none;}.cls-2{fill:#fff;}.cls-3{fill:#69c8f0;}.cls-4{fill:#7cc8f1;}.cls-5{fill:#c6e7fb;}.cls-6{fill:#3395d2;}.cls-7{fill:#229fdb;opacity:.5;}</style></defs><g id="Layer_2"><path class="cls-2" d="M442.35,124.19c.4-3.69,.66-9.44-2.4-15.38-3.23-6.27-11.71-9.36-11.71-9.36,0,0-3.48-1.44-7.49-1.51-4.19-.07-8.35,1.22-8.35,1.22l-38.53,22.6,.24-33.63s-1.04-8.95-6.38-13.24c-7.09-5.68-13.4-4.67-13.4-4.67,0,0-6.58,.49-12.31,4.44-3.66,2.53-7.56,12.14-7.56,12.14l-3.08,59.89-76.04,43.76-.1-77.51,48.75-33.05s6.42-5.9,8.24-12.24c1.51-5.27-1.78-12.75-1.78-12.75,0,0-3.63-6.21-9.71-8.67-6.89-2.79-14.92,.24-14.92,.24l-29.26,17.22-.44-45.48s-2.35-8.65-7.69-12.57c-2.99-2.19-7.84-5.3-14.52-5.62-7.04-.34-13.96,5.46-13.96,5.46,0,0-2.99,2.29-5.05,5.73-2.16,3.59-3.12,7.84-3.12,7.84l.28,44.66-28.99-17.04s-8.27-3.58-14.65-1.1c-8.47,3.29-10.75,9.27-10.75,9.27,0,0-2.87,5.94-2.31,12.88,.36,4.43,6.73,12.62,6.73,12.62l50.31,32.64-.13,66.8-72.04-38.95-5.81-58.61s-2.12-8.46-6.84-13.08c-3.91-3.84-12.06-4.52-12.06-4.52,0,0-7.19,.23-12.25,4.4-5.74,4.73-6.9,13.23-6.9,13.23l1.19,33.93-40.19-21.29s-8.73-2.06-14.71,.76c-3.35,1.58-8.4,4.36-11.86,10.08-3.66,6.03-1.86,14.88-1.86,14.88,0,0,.59,3.72,2.63,7.17,2.13,3.61,5.4,6.48,5.4,6.48l39.39,21.05-28.8,17.36s-7.09,5.56-7.95,12.36c-1.14,9.01,3.02,13.87,3.02,13.87,0,0,3.85,5.36,10.22,8.18,4.07,1.8,14.3,.1,14.3,.1l52.68-28.66,65.02,35.43-69.38,37.95-52.36-26.98s-8.25-2.82-14.69-1.37c-5.35,1.2-10.35,7.67-10.35,7.67,0,0-3.71,6.16-2.97,12.68,.85,7.39,7.35,12.98,7.35,12.98l29.13,17.44-39.71,22.16s-6.47,6.2-7.36,12.77c-.49,3.67-.9,9.42,2.01,15.44,3.07,6.34,11.48,9.65,11.48,9.65,0,0,3.44,1.53,7.45,1.69,4.19,.18,8.38-1.01,8.38-1.01l39.08-21.63-1.08,33.61s.81,8.97,6.05,13.39c6.94,5.86,13.28,5,13.28,5,0,0,6.59-.32,12.42-4.13,3.72-2.44,7.86-11.95,7.86-11.95l4.57-59.8,76.16-41.34,.09,71.42-48.75,33.05s-6.42,5.9-8.24,12.24c-1.51,5.27,1.78,12.75,1.78,12.75,0,0,3.63,6.21,9.71,8.67,6.89,2.79,14.92-.24,14.92-.24l29.26-17.22,.44,45.48s2.35,8.65,7.69,12.57c2.99,2.19,7.84,5.3,14.52,5.62,7.04,.34,13.96-5.46,13.96-5.46,0,0,2.99-2.29,5.05-5.73,2.16-3.59,3.12-7.84,3.12-7.84l-.28-44.66,28.99,17.04s8.27,3.58,14.65,1.1c8.47-3.29,10.75-9.27,10.75-9.27,0,0,2.87-5.94,2.31-12.88-.36-4.43-6.73-12.62-6.73-12.62l-50.31-32.64,.14-70.67,70.62,40.71,4.21,58.75s1.89,8.51,6.48,13.26c3.81,3.94,11.93,4.85,11.93,4.85,0,0,7.2-.03,12.37-4.06,5.87-4.57,7.26-13.03,7.26-13.03l-.27-33.95,39.59,22.38s8.67,2.3,14.73-.36c3.4-1.49,8.51-4.13,12.14-9.75,3.82-5.92,2.26-14.82,2.26-14.82,0,0-.49-3.73-2.43-7.24-2.03-3.67-5.23-6.63-5.23-6.63l-38.8-22.12,29.27-16.57s7.24-5.36,8.29-12.14c1.39-8.98-2.64-13.94-2.64-13.94,0,0-3.71-5.46-9.99-8.45-4.02-1.91-14.29-.49-14.29-.49l-53.44,27.21-56.4-32.76,61.98-35.94,53.01,25.67s8.32,2.61,14.72,1c5.32-1.33,10.15-7.92,10.15-7.92,0,0,3.56-6.25,2.65-12.75-1.03-7.36-7.67-12.79-7.67-12.79l-29.55-16.71,39.15-23.14s6.32-6.36,7.04-12.95Z"/></g><g id="Layer_5"><path class="cls-7" d="M347.93,90.41c27.74,23.95-3.32,105.41-69.39,181.93-66.07,76.52-142.12,119.14-169.86,95.18L347.93,90.41Z"/></g><g id="Layer_3"><path class="cls-6" d="M133.05,242.26c11.24-16.1,21.82-27.89,32.95-38.6l-8.45-4.6c-7.83,8.59-16.37,18.64-24.69,29.73-5.41,7.21-12.17,15.51-17.4,23.09l17.59-9.62Z"/><g><path class="cls-1" d="M286.15,141.27c-.16,.08-.35,.18-.54,.28,.18-.1,.36-.19,.54-.28,0,0,0,0,0,0Z"/><path class="cls-1" d="M317.77,145.21c.14,.25,.28,.51,.41,.78-.11-.35-.24-.61-.41-.78Z"/></g><path class="cls-6" d="M312.52,66.28s-.75,6.02-8.52,13.61l-48.75,33.05,.04,28.61c11.56-9.07,15.97-9.97,15.75-2.5-.24,7.96-16.82,33.84-42.54,67.89-12.03,15.92-47.63,54.42-65.6,71.38-8.07,7.62-59.84,53.92-69.98,35.02l-25.89,14.33c-.39,.99-9.59,29.86,17.54,44.35,25.48,13.61,60.52,7.19,106.26-25.19,29.77-21.07,68.18-54.73,106.76-114.17,31.13-47.96,50.35-91.12,50.11-124.31-.29-39.17-21.82-43.83-35.16-42.09Z"/><polygon class="cls-6" points="212.35 143.41 188.9 167.14 198.81 172.49 212.32 161.58 212.35 143.41"/></g><g id="Layer_9"><path class="cls-4" d="M140.74,322.12s148.8-109.83,177.97-193.3c1.64,44.54-108.13,159.07-177.97,193.3Z"/></g><g id="Layer_4"><path class="cls-6" d="M173.32,207.52c-16.8,18.59-31.17,39.51-41.75,62.32-16.1,34.71-27.67,83.85-11.92,103.78,13.68,17.31,33.33,27.1,66.13,12.46-21.69,18.43-54.48,25.2-70.31,15.99-34.87-20.29-32.4-79.12,18.7-159.57,8.97-14.12,19.9-27.03,30.75-39.56l8.4,4.58Z"/><path class="cls-4" d="M190.08,167.78c7.32-6.85,14.75-13.27,22.22-19.15v14.85c-4.13,3.03-8.23,6.26-12.3,9.66"/><path class="cls-4" d="M295.35,85.75c8.75-3.41,15.6-3.75,18.51,1.53,4.94,11.16,2.75,27.47-11.51,54.72-11.18,21.37-38.92,48.16-51.32,61.77-9.24,10.14-33.01,30.04-55.61,48.1l29.46-32.23c9.99-10.68,53.98-58.7,59.49-89.1,2.63-14.48-7.87-17.85-29.28,.81l.19-18.44,40.07-27.16Z"/><path class="cls-4" d="M312.61,63.75l14.97-4.43c9.73-2.88,19.87-4.3,30.01-3.9,13.74,.54,23.22,2.33,32.29,11.1s9.24,33.11-8.21,79.47c-21.77,57.84-59.73,96.91-60.69,98.14-26.46,33.3-63.29,64.89-92.8,83.13-72.8,45-109.53,58.31-137.59,47.55-13.88-5.32-27.89-26.8-21.67-48.18l14.46-8s7.95,40.94,85.96,4.43c72.66-34.01,113.24-70.71,148.84-109.44,23.97-26.35,68.3-111.54,48.76-134.77-11.87-14.12-27.78-17.39-54.51-12.1"/><path class="cls-4" d="M212.3,122.74c-20.89,16.05-42.18,35.95-62.25,58.2h0c5.87-7.04,13.87-16.12,22.17-25.36,13.15-14.64,26.69-27.9,40.17-39.5"/><path class="cls-5" d="M84.69,317.9c-7.04,21.51-3.48,34.37,4.96,46,9.07,11.73,20.44,12.78,41.58,7.65,40.02-11.26,87.68-53.38,131.91-101.56l-8.29,12.11c-20.03,29.26-43.8,55.81-71.04,78.51-42.2,35.17-80.57,51.82-105.11,40.23-.58-.27-1.15-.56-1.72-.86-15.14-8.48-20.09-26.53-15.17-54.65,1.03-5.48,2.45-11.21,4.27-17.13l18.61-10.3Z"/><path class="cls-5" d="M273.28,193.09c-3.35,11.45-9.32,23.95-18.07,37.67-4.14,7.12-6.33,12.21-2.37,13.07,6.64-.34,16.29-12.21,24.39-22.74,35.28-45.85,46.72-61.86,51.7-92.4,4.74-31.23,.08-50.32-23.39-50.35,0,0,9.18-8.49,6.59-18.13,0,0,11.12,.21,13.57,.44,.72,.07,1.43,.15,2.14,.25,28.12,3.88,41.34,32.67,25.35,81.31-12,33.03-33.54,69.17-62.79,102.02-23.45,25.64-48.58,54.68-71.68,59.9-24.89,5.62-31.51,4.1-37.01-6.54-15.39-29.77,67.99-92.83,73.01-123.61l.54-5.59c6-.8,11.25-4.19,15.19-1.47,6.12,4.11,6.47,13.81,2.84,26.19"/><path class="cls-5" d="M147.5,193.57c-2.12,2.67-4.28,5.42-6.45,8.19-12.13,15.49-22.84,31.56-31.93,46.85l6.35,3.27c9.11-17.49,20.42-38.34,33.26-57.63l-1.24-.67Z"/></g><g id="Layer_10"><path class="cls-6" d="M312.12,60.16c9.61-.37,21.72,.52,30.37,5.81,16.63,10.16,26.22,38.18,11.85,77.44-13.03,35.62-20.59,42.97-34.09,62.33,16.97-32.61,26.09-42.9,30.84-86.53,4.11-37.8-7.26-54.9-38.62-57.26l-.35-1.79Z"/></g><g id="Layer_7"><path class="cls-4" d="M391.64,24.02s-1.29,17.74-14.54,22.89c11.78,1.91,15.55,20.76,15.55,20.76,0,0,2.26-18.48,13.53-21.28-11.48-4.27-14.54-22.38-14.54-22.38Z"/><path class="cls-4" d="M436.31,12.19s-.75,9.61-8.42,12.4c6.82,1.04,9.01,11.25,9.01,11.25,0,0,1.31-10.01,7.83-11.53-6.65-2.31-8.42-12.12-8.42-12.12Z"/><path class="cls-4" d="M416.21,67.67s-.64,8.87-7.27,11.45c5.89,.96,7.78,10.38,7.78,10.38,0,0,1.13-9.24,6.76-10.64-5.74-2.13-7.27-11.19-7.27-11.19Z"/><path class="cls-4" d="M5.47,313.27s-.48,6.67-5.47,8.61c4.43,.72,5.85,7.81,5.85,7.81,0,0,.85-6.95,5.08-8-4.32-1.61-5.47-8.41-5.47-8.41Z"/><path class="cls-4" d="M20.58,360.84s-1.29,17.74-14.54,22.89c11.78,1.91,15.55,20.76,15.55,20.76,0,0,2.26-18.48,13.53-21.28-11.48-4.27-14.54-22.38-14.54-22.38Z"/><path class="cls-4" d="M50.75,328.08s-.82,10.27-9.23,13.26c7.48,1.11,9.87,12.02,9.87,12.02,0,0,1.44-10.7,8.59-12.32-7.29-2.47-9.23-12.96-9.23-12.96Z"/></g><g id="Layer_8"><path class="cls-5" d="M92.91,313.35s12.15,25.91,76.35-26.8c-23.26,23.56-68.36,60.12-82.77,30.35l6.42-3.55Z"/><g><path class="cls-3" d="M488.65,244.2V79.57h61.77c12.58,0,22.67,1.67,30.27,5,7.6,3.33,13.55,8.46,17.86,15.39,4.3,6.93,6.46,14.17,6.46,21.73,0,7.04-1.91,13.66-5.73,19.88-3.82,6.22-9.58,11.23-17.29,15.05,9.96,2.92,17.61,7.9,22.97,14.94,5.35,7.04,8.03,15.35,8.03,24.93,0,7.71-1.63,14.88-4.89,21.51-3.26,6.63-7.28,11.74-12.07,15.33-4.79,3.59-10.8,6.31-18.03,8.14-7.23,1.84-16.08,2.75-26.56,2.75h-62.78Zm21.79-95.46h35.6c9.66,0,16.58-.64,20.78-1.91,5.54-1.65,9.71-4.38,12.52-8.2,2.81-3.82,4.21-8.61,4.21-14.38,0-5.46-1.31-10.28-3.93-14.43-2.62-4.16-6.36-7-11.23-8.54-4.87-1.53-13.21-2.3-25.04-2.3h-32.91v49.75Zm0,76.03h40.99c7.04,0,11.98-.26,14.82-.79,5.01-.9,9.21-2.4,12.58-4.49,3.37-2.1,6.14-5.15,8.31-9.15,2.17-4,3.26-8.63,3.26-13.87,0-6.14-1.57-11.47-4.72-16-3.14-4.53-7.51-7.71-13.08-9.55-5.58-1.83-13.61-2.75-24.09-2.75h-38.07v56.6Z"/><path class="cls-3" d="M640.15,244.2V124.94h18.19v18.08c4.64-8.46,8.93-14.04,12.86-16.73,3.93-2.7,8.25-4.04,12.97-4.04,6.81,0,13.74,2.17,20.78,6.51l-6.96,18.75c-4.94-2.92-9.88-4.38-14.82-4.38-4.42,0-8.39,1.33-11.9,3.99-3.52,2.66-6.03,6.35-7.52,11.06-2.25,7.19-3.37,15.05-3.37,23.58v62.44h-20.21Z"/><path class="cls-3" d="M798.61,205.8l20.89,2.58c-3.3,12.2-9.4,21.67-18.31,28.41-8.91,6.74-20.29,10.11-34.14,10.11-17.45,0-31.28-5.37-41.5-16.12-10.22-10.74-15.33-25.81-15.33-45.2s5.17-35.64,15.5-46.72c10.33-11.08,23.73-16.62,40.21-16.62s28.97,5.43,39.08,16.28c10.11,10.86,15.16,26.13,15.16,45.82,0,1.2-.04,3-.11,5.39h-88.95c.75,13.1,4.45,23.13,11.12,30.1,6.66,6.96,14.97,10.44,24.93,10.44,7.41,0,13.74-1.95,18.98-5.84,5.24-3.89,9.39-10.11,12.47-18.64Zm-66.37-32.68h66.6c-.9-10.03-3.44-17.56-7.64-22.57-6.44-7.79-14.79-11.68-25.04-11.68-9.28,0-17.09,3.11-23.42,9.32-6.33,6.22-9.83,14.53-10.5,24.93Z"/><path class="cls-3" d="M922.71,229.49c-7.49,6.36-14.69,10.86-21.62,13.48-6.93,2.62-14.36,3.93-22.29,3.93-13.1,0-23.17-3.2-30.21-9.6-7.04-6.4-10.56-14.58-10.56-24.54,0-5.84,1.33-11.17,3.99-16,2.66-4.83,6.14-8.7,10.45-11.62,4.3-2.92,9.15-5.13,14.54-6.63,3.97-1.05,9.96-2.06,17.97-3.03,16.32-1.95,28.34-4.27,36.05-6.96,.07-2.77,.11-4.53,.11-5.28,0-8.23-1.91-14.04-5.73-17.41-5.17-4.57-12.84-6.85-23.02-6.85-9.51,0-16.53,1.67-21.06,5-4.53,3.33-7.88,9.23-10.05,17.69l-19.77-2.7c1.8-8.46,4.75-15.29,8.87-20.5,4.12-5.2,10.07-9.21,17.86-12.02,7.79-2.81,16.81-4.21,27.07-4.21s18.46,1.2,24.82,3.59c6.36,2.4,11.04,5.41,14.04,9.04,2.99,3.63,5.09,8.22,6.29,13.76,.67,3.44,1.01,9.66,1.01,18.64v26.95c0,18.79,.43,30.68,1.29,35.66,.86,4.98,2.56,9.75,5.11,14.32h-21.11c-2.1-4.19-3.44-9.1-4.04-14.71Zm-1.68-45.15c-7.34,3-18.34,5.54-33.02,7.64-8.31,1.2-14.19,2.55-17.63,4.04-3.44,1.5-6.1,3.69-7.97,6.57-1.87,2.88-2.81,6.08-2.81,9.6,0,5.39,2.04,9.88,6.12,13.48,4.08,3.59,10.05,5.39,17.91,5.39s14.71-1.7,20.78-5.11c6.06-3.41,10.52-8.07,13.36-13.98,2.17-4.57,3.26-11.3,3.26-20.21v-7.41Z"/><path class="cls-3" d="M1016.93,226.12l2.92,17.86c-5.69,1.2-10.78,1.8-15.27,1.8-7.34,0-13.03-1.16-17.07-3.48-4.04-2.32-6.89-5.37-8.54-9.15-1.65-3.78-2.47-11.74-2.47-23.86v-68.62h-14.82v-15.72h14.82v-29.54l20.1-12.13v41.67h20.33v15.72h-20.33v69.74c0,5.77,.35,9.47,1.07,11.12,.71,1.65,1.87,2.96,3.48,3.93,1.61,.97,3.91,1.46,6.91,1.46,2.25,0,5.2-.26,8.87-.79Z"/><path class="cls-3" d="M1036.7,244.2V79.57h20.21v59.07c9.43-10.93,21.34-16.4,35.71-16.4,8.83,0,16.51,1.74,23.02,5.22s11.17,8.29,13.98,14.43c2.81,6.14,4.21,15.05,4.21,26.73v75.58h-20.21v-75.58c0-10.11-2.19-17.46-6.57-22.07-4.38-4.6-10.58-6.91-18.59-6.91-5.99,0-11.62,1.55-16.9,4.66-5.28,3.11-9.04,7.32-11.29,12.63-2.25,5.32-3.37,12.65-3.37,22.01v65.25h-20.21Z"/><path class="cls-3" d="M1246.26,205.8l20.89,2.58c-3.3,12.2-9.4,21.67-18.31,28.41-8.91,6.74-20.29,10.11-34.14,10.11-17.45,0-31.28-5.37-41.5-16.12-10.22-10.74-15.33-25.81-15.33-45.2s5.17-35.64,15.5-46.72c10.33-11.08,23.73-16.62,40.21-16.62s28.97,5.43,39.08,16.28c10.11,10.86,15.16,26.13,15.16,45.82,0,1.2-.04,3-.11,5.39h-88.95c.75,13.1,4.45,23.13,11.12,30.1,6.66,6.96,14.97,10.44,24.93,10.44,7.41,0,13.74-1.95,18.98-5.84,5.24-3.89,9.39-10.11,12.47-18.64Zm-66.37-32.68h66.6c-.9-10.03-3.44-17.56-7.64-22.57-6.44-7.79-14.79-11.68-25.04-11.68-9.28,0-17.09,3.11-23.42,9.32-6.33,6.22-9.83,14.53-10.5,24.93Z"/><path class="cls-3" d="M1284.67,194.79v-20.33h62.1v20.33h-62.1Z"/><path class="cls-3" d="M1372.15,244.2V79.57h119.04v19.43h-97.26v50.42h91.08v19.32h-91.08v56.04h101.07v19.43h-122.86Z"/><path class="cls-3" d="M1600.36,229.49c-7.49,6.36-14.69,10.86-21.62,13.48-6.93,2.62-14.36,3.93-22.29,3.93-13.1,0-23.17-3.2-30.21-9.6-7.04-6.4-10.56-14.58-10.56-24.54,0-5.84,1.33-11.17,3.99-16,2.66-4.83,6.14-8.7,10.45-11.62,4.3-2.92,9.15-5.13,14.54-6.63,3.97-1.05,9.96-2.06,17.97-3.03,16.32-1.95,28.34-4.27,36.05-6.96,.07-2.77,.11-4.53,.11-5.28,0-8.23-1.91-14.04-5.73-17.41-5.17-4.57-12.84-6.85-23.02-6.85-9.51,0-16.53,1.67-21.06,5-4.53,3.33-7.88,9.23-10.05,17.69l-19.77-2.7c1.8-8.46,4.75-15.29,8.87-20.5,4.12-5.2,10.07-9.21,17.86-12.02,7.79-2.81,16.81-4.21,27.07-4.21s18.46,1.2,24.82,3.59c6.36,2.4,11.04,5.41,14.04,9.04,2.99,3.63,5.09,8.22,6.29,13.76,.67,3.44,1.01,9.66,1.01,18.64v26.95c0,18.79,.43,30.68,1.29,35.66,.86,4.98,2.56,9.75,5.11,14.32h-21.11c-2.1-4.19-3.44-9.1-4.04-14.71Zm-1.68-45.15c-7.34,3-18.34,5.54-33.02,7.64-8.31,1.2-14.19,2.55-17.63,4.04-3.44,1.5-6.1,3.69-7.97,6.57-1.87,2.88-2.81,6.08-2.81,9.6,0,5.39,2.04,9.88,6.12,13.48,4.08,3.59,10.05,5.39,17.91,5.39s14.71-1.7,20.78-5.11c6.06-3.41,10.52-8.07,13.36-13.98,2.17-4.57,3.26-11.3,3.26-20.21v-7.41Z"/><path class="cls-3" d="M1642.36,208.6l19.99-3.14c1.12,8.01,4.25,14.15,9.38,18.42,5.13,4.27,12.3,6.4,21.51,6.4s16.17-1.89,20.66-5.67c4.49-3.78,6.74-8.22,6.74-13.31,0-4.57-1.98-8.16-5.95-10.78-2.77-1.8-9.66-4.08-20.66-6.85-14.82-3.74-25.1-6.98-30.83-9.71-5.73-2.73-10.07-6.51-13.03-11.34-2.96-4.83-4.44-10.16-4.44-16,0-5.31,1.22-10.24,3.65-14.77,2.43-4.53,5.75-8.29,9.94-11.29,3.14-2.32,7.43-4.29,12.86-5.9,5.43-1.61,11.25-2.41,17.46-2.41,9.36,0,17.58,1.35,24.65,4.04,7.08,2.7,12.3,6.35,15.67,10.95s5.69,10.76,6.96,18.47l-19.77,2.7c-.9-6.14-3.5-10.93-7.81-14.38-4.31-3.44-10.39-5.17-18.25-5.17-9.28,0-15.91,1.54-19.88,4.6-3.97,3.07-5.95,6.66-5.95,10.78,0,2.62,.82,4.98,2.47,7.08,1.65,2.17,4.23,3.97,7.75,5.39,2.02,.75,7.97,2.47,17.86,5.17,14.3,3.82,24.28,6.95,29.93,9.38,5.65,2.43,10.09,5.97,13.31,10.61,3.22,4.64,4.83,10.41,4.83,17.29s-1.97,13.08-5.9,19.04c-3.93,5.95-9.6,10.56-17.01,13.81s-15.8,4.89-25.16,4.89c-15.5,0-27.31-3.22-35.43-9.66-8.12-6.44-13.31-15.98-15.55-28.64Z"/><path class="cls-3" d="M1764.55,290.14l-2.25-18.98c4.42,1.2,8.27,1.8,11.57,1.8,4.49,0,8.09-.75,10.78-2.25s4.9-3.59,6.63-6.29c1.27-2.02,3.33-7.04,6.18-15.05,.37-1.12,.97-2.77,1.8-4.94l-45.26-119.49h21.79l24.82,69.07c3.22,8.76,6.1,17.97,8.65,27.63,2.32-9.28,5.09-18.34,8.31-27.18l25.49-69.52h20.21l-45.37,121.29c-4.87,13.1-8.65,22.12-11.34,27.07-3.59,6.66-7.71,11.55-12.35,14.65-4.64,3.11-10.18,4.66-16.62,4.66-3.89,0-8.24-.83-13.03-2.47Z"/></g><g><path class="cls-3" d="M484.58,374.19l24.74-64.42h9.18l26.37,64.42h-9.71l-7.51-19.51h-26.94l-7.08,19.51h-9.05Zm18.59-26.46h21.84l-6.72-17.84c-2.05-5.42-3.57-9.87-4.57-13.36-.82,4.13-1.98,8.23-3.47,12.3l-7.08,18.9Z"/><path class="cls-3" d="M590.93,374.19v-64.42h8.53v64.42h-8.53Z"/><path class="cls-3" d="M652.42,374.19v-64.42h28.56c5.74,0,10.11,.58,13.1,1.74s5.38,3.2,7.16,6.13,2.68,6.17,2.68,9.71c0,4.57-1.48,8.42-4.44,11.56s-7.53,5.13-13.71,5.98c2.26,1.08,3.97,2.15,5.14,3.21,2.49,2.29,4.85,5.14,7.08,8.57l11.21,17.53h-10.72l-8.53-13.4c-2.49-3.87-4.54-6.83-6.15-8.88s-3.05-3.49-4.33-4.31c-1.27-.82-2.57-1.39-3.89-1.71-.97-.21-2.55-.31-4.75-.31h-9.89v28.61h-8.53Zm8.53-35.99h18.33c3.9,0,6.94-.4,9.14-1.21s3.87-2.09,5.01-3.87,1.71-3.7,1.71-5.78c0-3.05-1.11-5.55-3.32-7.51-2.21-1.96-5.71-2.94-10.48-2.94h-20.39v21.31Z"/><path class="cls-3" d="M801.05,351.61l8.53,2.15c-1.79,7-5,12.34-9.65,16.02s-10.32,5.51-17.03,5.51-12.59-1.41-16.94-4.24c-4.35-2.83-7.66-6.92-9.93-12.28-2.27-5.36-3.41-11.12-3.41-17.27,0-6.71,1.28-12.56,3.85-17.56,2.56-4.99,6.21-8.79,10.94-11.38,4.73-2.59,9.94-3.89,15.62-3.89,6.45,0,11.87,1.64,16.26,4.92s7.46,7.9,9.18,13.84l-8.39,1.98c-1.49-4.69-3.66-8.1-6.5-10.24s-6.42-3.21-10.72-3.21c-4.95,0-9.09,1.19-12.41,3.56-3.33,2.37-5.66,5.56-7.01,9.56-1.35,4-2.02,8.12-2.02,12.37,0,5.48,.8,10.26,2.39,14.35,1.6,4.09,4.08,7.14,7.45,9.16s7.02,3.03,10.94,3.03c4.78,0,8.82-1.38,12.13-4.13s5.55-6.84,6.72-12.26Z"/><path class="cls-3" d="M855.29,342.82c0-10.69,2.87-19.06,8.61-25.12,5.74-6.05,13.15-9.07,22.24-9.07,5.95,0,11.31,1.42,16.08,4.26s8.42,6.8,10.92,11.89c2.5,5.08,3.76,10.85,3.76,17.29s-1.32,12.38-3.96,17.53-6.37,9.06-11.21,11.71c-4.83,2.65-10.05,3.98-15.64,3.98-6.06,0-11.48-1.46-16.26-4.39s-8.39-6.93-10.85-12-3.69-10.43-3.69-16.08Zm8.79,.13c0,7.76,2.09,13.88,6.26,18.35,4.17,4.47,9.41,6.7,15.71,6.7s11.7-2.26,15.84-6.77c4.14-4.51,6.22-10.91,6.22-19.2,0-5.24-.89-9.82-2.66-13.73-1.77-3.91-4.37-6.94-7.78-9.1-3.41-2.15-7.24-3.23-11.49-3.23-6.04,0-11.23,2.07-15.58,6.22-4.35,4.15-6.53,11.07-6.53,20.76Z"/><path class="cls-3" d="M965.6,374.19v-64.42h8.75l33.84,50.58v-50.58h8.17v64.42h-8.75l-33.84-50.62v50.62h-8.17Z"/><path class="cls-3" d="M1177.25,351.61l8.53,2.15c-1.79,7-5,12.34-9.65,16.02s-10.32,5.51-17.03,5.51-12.59-1.41-16.94-4.24c-4.35-2.83-7.66-6.92-9.93-12.28-2.27-5.36-3.41-11.12-3.41-17.27,0-6.71,1.28-12.56,3.85-17.56,2.56-4.99,6.21-8.79,10.94-11.38,4.73-2.59,9.94-3.89,15.62-3.89,6.45,0,11.87,1.64,16.26,4.92s7.46,7.9,9.18,13.84l-8.39,1.98c-1.49-4.69-3.66-8.1-6.5-10.24s-6.42-3.21-10.72-3.21c-4.95,0-9.09,1.19-12.41,3.56-3.33,2.37-5.66,5.56-7.01,9.56-1.35,4-2.02,8.12-2.02,12.37,0,5.48,.8,10.26,2.39,14.35,1.6,4.09,4.08,7.14,7.45,9.16s7.02,3.03,10.94,3.03c4.78,0,8.82-1.38,12.13-4.13s5.55-6.84,6.72-12.26Z"/><path class="cls-3" d="M1233.73,374.19v-64.42h8.53v56.82h31.73v7.6h-40.25Z"/><path class="cls-3" d="M1322.11,374.19v-64.42h46.58v7.6h-38.06v19.73h35.64v7.56h-35.64v21.93h39.55v7.6h-48.08Z"/><path class="cls-3" d="M1412.69,374.19l24.74-64.42h9.18l26.37,64.42h-9.71l-7.51-19.51h-26.94l-7.08,19.51h-9.05Zm18.59-26.46h21.84l-6.72-17.84c-2.05-5.42-3.57-9.87-4.57-13.36-.82,4.13-1.98,8.23-3.47,12.3l-7.08,18.9Z"/><path class="cls-3" d="M1517.5,374.19v-64.42h8.75l33.84,50.58v-50.58h8.17v64.42h-8.75l-33.84-50.62v50.62h-8.17Z"/><path class="cls-3" d="M1621.84,374.19v-64.42h8.53v64.42h-8.53Z"/><path class="cls-3" d="M1683.1,374.19v-64.42h8.75l33.84,50.58v-50.58h8.17v64.42h-8.75l-33.84-50.62v50.62h-8.17Z"/><path class="cls-3" d="M1816.13,348.93v-7.56l27.29-.04v23.91c-4.19,3.34-8.51,5.85-12.96,7.54-4.45,1.68-9.02,2.53-13.71,2.53-6.33,0-12.08-1.35-17.25-4.07-5.17-2.71-9.08-6.63-11.71-11.75s-3.96-10.85-3.96-17.18,1.31-12.12,3.93-17.56c2.62-5.43,6.39-9.47,11.32-12.11s10.59-3.96,17.01-3.96c4.66,0,8.87,.75,12.63,2.26,3.76,1.51,6.72,3.61,8.86,6.31s3.76,6.21,4.88,10.55l-7.69,2.11c-.97-3.28-2.17-5.86-3.6-7.73s-3.49-3.38-6.15-4.5-5.62-1.69-8.88-1.69c-3.9,0-7.27,.59-10.11,1.78-2.84,1.19-5.13,2.75-6.88,4.68-1.74,1.93-3.1,4.06-4.07,6.37-1.64,3.98-2.46,8.31-2.46,12.96,0,5.74,.99,10.55,2.97,14.41,1.98,3.87,4.86,6.74,8.64,8.61s7.79,2.81,12.04,2.81c3.69,0,7.29-.71,10.81-2.13s6.18-2.94,8-4.55v-12h-18.94Z"/></g></g></svg>