<?xml version="1.0" encoding="UTF-8"?><svg xmlns="http://www.w3.org/2000/svg" viewBox="0 0 1886.85 432.5"><defs><style>.cls-1{fill:none;}.cls-2{fill:#7cc8f1;}.cls-3{fill:#c6e7fb;}.cls-4,.cls-5,.cls-6{fill:#1f4088;}.cls-7{fill:#3395d2;}.cls-5{font-size:230px;}.cls-5,.cls-6{font-family:ArialMT, Arial;}.cls-8{fill:#229fdb;opacity:.5;}.cls-6{font-size:90px;letter-spacing:.42em;}</style></defs><g id="Layer_2"><path class="cls-4" d="M442.35,124.19c.4-3.69,.66-9.44-2.4-15.38-3.23-6.27-11.71-9.36-11.71-9.36,0,0-3.48-1.44-7.49-1.51-4.19-.07-8.35,1.22-8.35,1.22l-38.53,22.6,.24-33.63s-1.04-8.95-6.38-13.24c-7.09-5.68-13.4-4.67-13.4-4.67,0,0-6.58,.49-12.31,4.44-3.66,2.53-7.56,12.14-7.56,12.14l-3.08,59.89-76.04,43.76-.1-77.51,48.75-33.05s6.42-5.9,8.24-12.24c1.51-5.27-1.78-12.75-1.78-12.75,0,0-3.63-6.21-9.71-8.67-6.89-2.79-14.92,.24-14.92,.24l-29.26,17.22-.44-45.48s-2.35-8.65-7.69-12.57c-2.99-2.19-7.84-5.3-14.52-5.62-7.04-.34-13.96,5.46-13.96,5.46,0,0-2.99,2.29-5.05,5.73-2.16,3.59-3.12,7.84-3.12,7.84l.28,44.66-28.99-17.04s-8.27-3.58-14.65-1.1c-8.47,3.29-10.75,9.27-10.75,9.27,0,0-2.87,5.94-2.31,12.88,.36,4.43,6.73,12.62,6.73,12.62l50.31,32.64-.13,66.8-72.04-38.95-5.81-58.61s-2.12-8.46-6.84-13.08c-3.91-3.84-12.06-4.52-12.06-4.52,0,0-7.19,.23-12.25,4.4-5.74,4.73-6.9,13.23-6.9,13.23l1.19,33.93-40.19-21.29s-8.73-2.06-14.71,.76c-3.35,1.58-8.4,4.36-11.86,10.08-3.66,6.03-1.86,14.88-1.86,14.88,0,0,.59,3.72,2.63,7.17,2.13,3.61,5.4,6.48,5.4,6.48l39.39,21.05-28.8,17.36s-7.09,5.56-7.95,12.36c-1.14,9.01,3.02,13.87,3.02,13.87,0,0,3.85,5.36,10.22,8.18,4.07,1.8,14.3,.1,14.3,.1l52.68-28.66,65.02,35.43-69.38,37.95-52.36-26.98s-8.25-2.82-14.69-1.37c-5.35,1.2-10.35,7.67-10.35,7.67,0,0-3.71,6.16-2.97,12.68,.85,7.39,7.35,12.98,7.35,12.98l29.13,17.44-39.71,22.16s-6.47,6.2-7.36,12.77c-.49,3.67-.9,9.42,2.01,15.44,3.07,6.34,11.48,9.65,11.48,9.65,0,0,3.44,1.53,7.45,1.69,4.19,.18,8.38-1.01,8.38-1.01l39.08-21.63-1.08,33.61s.81,8.97,6.05,13.39c6.94,5.86,13.28,5,13.28,5,0,0,6.59-.32,12.42-4.13,3.72-2.44,7.86-11.95,7.86-11.95l4.57-59.8,76.16-41.34,.09,71.42-48.75,33.05s-6.42,5.9-8.24,12.24c-1.51,5.27,1.78,12.75,1.78,12.75,0,0,3.63,6.21,9.71,8.67,6.89,2.79,14.92-.24,14.92-.24l29.26-17.22,.44,45.48s2.35,8.65,7.69,12.57c2.99,2.19,7.84,5.3,14.52,5.62,7.04,.34,13.96-5.46,13.96-5.46,0,0,2.99-2.29,5.05-5.73,2.16-3.59,3.12-7.84,3.12-7.84l-.28-44.66,28.99,17.04s8.27,3.58,14.65,1.1c8.47-3.29,10.75-9.27,10.75-9.27,0,0,2.87-5.94,2.31-12.88-.36-4.43-6.73-12.62-6.73-12.62l-50.31-32.64,.14-70.67,70.62,40.71,4.21,58.75s1.89,8.51,6.48,13.26c3.81,3.94,11.93,4.85,11.93,4.85,0,0,7.2-.03,12.37-4.06,5.87-4.57,7.26-13.03,7.26-13.03l-.27-33.95,39.59,22.38s8.67,2.3,14.73-.36c3.4-1.49,8.51-4.13,12.14-9.75,3.82-5.92,2.26-14.82,2.26-14.82,0,0-.49-3.73-2.43-7.24-2.03-3.67-5.23-6.63-5.23-6.63l-38.8-22.12,29.27-16.57s7.24-5.36,8.29-12.14c1.39-8.98-2.64-13.94-2.64-13.94,0,0-3.71-5.46-9.99-8.45-4.02-1.91-14.29-.49-14.29-.49l-53.44,27.21-56.4-32.76,61.98-35.94,53.01,25.67s8.32,2.61,14.72,1c5.32-1.33,10.15-7.92,10.15-7.92,0,0,3.56-6.25,2.65-12.75-1.03-7.36-7.67-12.79-7.67-12.79l-29.55-16.71,39.15-23.14s6.32-6.36,7.04-12.95Z"/></g><g id="Layer_5"><path class="cls-8" d="M347.93,90.41c27.74,23.95-3.32,105.41-69.39,181.93-66.07,76.52-142.12,119.14-169.86,95.18L347.93,90.41Z"/></g><g id="Layer_3"><path class="cls-7" d="M133.05,242.26c11.24-16.1,21.82-27.89,32.95-38.6l-8.45-4.6c-7.83,8.59-16.37,18.64-24.69,29.73-5.41,7.21-12.17,15.51-17.4,23.09l17.59-9.62Z"/><g><path class="cls-1" d="M286.15,141.27c-.16,.08-.35,.18-.54,.28,.18-.1,.36-.19,.54-.28,0,0,0,0,0,0Z"/><path class="cls-1" d="M317.77,145.21c.14,.25,.28,.51,.41,.78-.11-.35-.24-.61-.41-.78Z"/></g><path class="cls-7" d="M312.52,66.28s-.75,6.02-8.52,13.61l-48.75,33.05,.04,28.61c11.56-9.07,15.97-9.97,15.75-2.5-.24,7.96-16.82,33.84-42.54,67.89-12.03,15.92-47.63,54.42-65.6,71.38-8.07,7.62-59.84,53.92-69.98,35.02l-25.89,14.33c-.39,.99-9.59,29.86,17.54,44.35,25.48,13.61,60.52,7.19,106.26-25.19,29.77-21.07,68.18-54.73,106.76-114.17,31.13-47.96,50.35-91.12,50.11-124.31-.29-39.17-21.82-43.83-35.16-42.09Z"/><polygon class="cls-7" points="212.35 143.41 188.9 167.14 198.81 172.49 212.32 161.58 212.35 143.41"/></g><g id="Layer_9"><path class="cls-2" d="M140.74,322.12s148.8-109.83,177.97-193.3c1.64,44.54-108.13,159.07-177.97,193.3Z"/></g><g id="Layer_4"><path class="cls-7" d="M173.32,207.52c-16.8,18.59-31.17,39.51-41.75,62.32-16.1,34.71-27.67,83.85-11.92,103.78,13.68,17.31,33.33,27.1,66.13,12.46-21.69,18.43-54.48,25.2-70.31,15.99-34.87-20.29-32.4-79.12,18.7-159.57,8.97-14.12,19.9-27.03,30.75-39.56l8.4,4.58Z"/><path class="cls-2" d="M190.08,167.78c7.32-6.85,14.75-13.27,22.22-19.15v14.85c-4.13,3.03-8.23,6.26-12.3,9.66"/><path class="cls-2" d="M295.35,85.75c8.75-3.41,15.6-3.75,18.51,1.53,4.94,11.16,2.75,27.47-11.51,54.72-11.18,21.37-38.92,48.16-51.32,61.77-9.24,10.14-33.01,30.04-55.61,48.1l29.46-32.23c9.99-10.68,53.98-58.7,59.49-89.1,2.63-14.48-7.87-17.85-29.28,.81l.19-18.44,40.07-27.16Z"/><path class="cls-2" d="M312.61,63.75l14.97-4.43c9.73-2.88,19.87-4.3,30.01-3.9,13.74,.54,23.22,2.33,32.29,11.1s9.24,33.11-8.21,79.47c-21.77,57.84-59.73,96.91-60.69,98.14-26.46,33.3-63.29,64.89-92.8,83.13-72.8,45-109.53,58.31-137.59,47.55-13.88-5.32-27.89-26.8-21.67-48.18l14.46-8s7.95,40.94,85.96,4.43c72.66-34.01,113.24-70.71,148.84-109.44,23.97-26.35,68.3-111.54,48.76-134.77-11.87-14.12-27.78-17.39-54.51-12.1"/><path class="cls-2" d="M212.3,122.74c-20.89,16.05-42.18,35.95-62.25,58.2h0c5.87-7.04,13.87-16.12,22.17-25.36,13.15-14.64,26.69-27.9,40.17-39.5"/><path class="cls-3" d="M84.69,317.9c-7.04,21.51-3.48,34.37,4.96,46,9.07,11.73,20.44,12.78,41.58,7.65,40.02-11.26,87.68-53.38,131.91-101.56l-8.29,12.11c-20.03,29.26-43.8,55.81-71.04,78.51-42.2,35.17-80.57,51.82-105.11,40.23-.58-.27-1.15-.56-1.72-.86-15.14-8.48-20.09-26.53-15.17-54.65,1.03-5.48,2.45-11.21,4.27-17.13l18.61-10.3Z"/><path class="cls-3" d="M273.28,193.09c-3.35,11.45-9.32,23.95-18.07,37.67-4.14,7.12-6.33,12.21-2.37,13.07,6.64-.34,16.29-12.21,24.39-22.74,35.28-45.85,46.72-61.86,51.7-92.4,4.74-31.23,.08-50.32-23.39-50.35,0,0,9.18-8.49,6.59-18.13,0,0,11.12,.21,13.57,.44,.72,.07,1.43,.15,2.14,.25,28.12,3.88,41.34,32.67,25.35,81.31-12,33.03-33.54,69.17-62.79,102.02-23.45,25.64-48.58,54.68-71.68,59.9-24.89,5.62-31.51,4.1-37.01-6.54-15.39-29.77,67.99-92.83,73.01-123.61l.54-5.59c6-.8,11.25-4.19,15.19-1.47,6.12,4.11,6.47,13.81,2.84,26.19"/><path class="cls-3" d="M147.5,193.57c-2.12,2.67-4.28,5.42-6.45,8.19-12.13,15.49-22.84,31.56-31.93,46.85l6.35,3.27c9.11-17.49,20.42-38.34,33.26-57.63l-1.24-.67Z"/></g><g id="Layer_10"><path class="cls-7" d="M312.12,60.16c9.61-.37,21.72,.52,30.37,5.81,16.63,10.16,26.22,38.18,11.85,77.44-13.03,35.62-20.59,42.97-34.09,62.33,16.97-32.61,26.09-42.9,30.84-86.53,4.11-37.8-7.26-54.9-38.62-57.26l-.35-1.79Z"/></g><g id="Layer_7"><path class="cls-2" d="M391.64,24.02s-1.29,17.74-14.54,22.89c11.78,1.91,15.55,20.76,15.55,20.76,0,0,2.26-18.48,13.53-21.28-11.48-4.27-14.54-22.38-14.54-22.38Z"/><path class="cls-2" d="M436.31,12.19s-.75,9.61-8.42,12.4c6.82,1.04,9.01,11.25,9.01,11.25,0,0,1.31-10.01,7.83-11.53-6.65-2.31-8.42-12.12-8.42-12.12Z"/><path class="cls-2" d="M416.21,67.67s-.64,8.87-7.27,11.45c5.89,.96,7.78,10.38,7.78,10.38,0,0,1.13-9.24,6.76-10.64-5.74-2.13-7.27-11.19-7.27-11.19Z"/><path class="cls-2" d="M5.47,313.27s-.48,6.67-5.47,8.61c4.43,.72,5.85,7.81,5.85,7.81,0,0,.85-6.95,5.08-8-4.32-1.61-5.47-8.41-5.47-8.41Z"/><path class="cls-2" d="M20.58,360.84s-1.29,17.74-14.54,22.89c11.78,1.91,15.55,20.76,15.55,20.76,0,0,2.26-18.48,13.53-21.28-11.48-4.27-14.54-22.38-14.54-22.38Z"/><path class="cls-2" d="M50.75,328.08s-.82,10.27-9.23,13.26c7.48,1.11,9.87,12.02,9.87,12.02,0,0,1.44-10.7,8.59-12.32-7.29-2.47-9.23-12.96-9.23-12.96Z"/></g><g id="Layer_8"><path class="cls-3" d="M92.91,313.35s12.15,25.91,76.35-26.8c-23.26,23.56-68.36,60.12-82.77,30.35l6.42-3.55Z"/><text class="cls-5" transform="translate(471.81 244.2)"><tspan x="0" y="0">Breathe-Easy</tspan></text><text class="cls-6" transform="translate(484.71 374.19)"><tspan x="0" y="0">AIRCON CLEANING</tspan></text></g></svg>