<svg width="67" height="50" viewBox="0 0 67 50" fill="none" xmlns="http://www.w3.org/2000/svg">
<path d="M0.216797 49.6133V31.0684C0.216797 22.2793 2.29688 15.3359 6.45703 10.2383C10.6758 5.14062 16.7988 1.80078 24.8262 0.21875V9.35938C18.8496 11.2344 14.8359 14.457 12.7852 19.0273C11.7305 21.4297 11.291 23.9199 11.4668 26.498H25.2656V49.6133H0.216797ZM66.4863 9.35938C60.5684 11.1758 56.584 14.457 54.5332 19.2031C53.3613 21.7227 52.8926 24.1543 53.127 26.498H66.9258V49.6133H41.877V31.0684C41.877 22.1621 44.0156 15.1895 48.293 10.1504C52.6289 5.11133 58.6934 1.80078 66.4863 0.21875V9.35938Z" fill="#68C8F0"/>
</svg>
