<svg width="67" height="51" viewBox="0 0 67 51" fill="none" xmlns="http://www.w3.org/2000/svg">
<path d="M0.271484 24.0039V0.888672H25.3203V19.4336C25.3203 28.0469 23.2109 34.9609 18.9922 40.1758C14.832 45.3906 8.73828 48.7598 0.710938 50.2832V41.0547C6.62891 39.1797 10.6133 35.957 12.6641 31.3867C13.7773 28.9844 14.2461 26.5234 14.0703 24.0039H0.271484ZM60.6523 39.9121C56.5508 45.2441 50.3984 48.7012 42.1953 50.2832V41.0547C48.2305 39.2383 52.2441 35.8984 54.2363 31.0352C55.0566 29.1016 55.4668 26.7578 55.4668 24.0039H41.7559V0.888672H66.7168V19.4336C66.7168 27.8125 64.6953 34.6387 60.6523 39.9121Z" fill="#68C8F0"/>
</svg>
